<svg xmlns="http://www.w3.org/2000/svg" width="339" height="18" viewBox="0 0 339 18" fill="none"><g clip-path="url(#clip0)"><path d="M18.1207 17.1408C16.6213 17.1408 15.9215 17.0408 14.622 17.0408C13.2226 17.0408 11.8231 17.1408 10.4236 17.1408C10.3237 17.1408 10.2237 16.9409 10.2237 16.741C10.2237 16.541 10.3237 16.3411 10.4236 16.3411C11.3233 16.2411 11.7231 16.0412 11.7231 15.6414C11.7231 15.4415 11.5232 15.1416 11.3233 14.8417L7.52475 10.5433C7.1249 10.0435 6.82502 9.84357 6.12529 9.84357V14.3419C6.12529 15.5414 6.32521 16.0412 8.32444 16.2411C8.42441 16.2411 8.52437 16.4411 8.52437 16.641C8.52437 16.8409 8.42441 17.0408 8.32444 17.0408C6.82502 17.0408 5.8254 16.9409 4.5259 16.9409C3.12643 16.9409 2.12681 17.0408 0.627386 17.0408C0.527424 17.0408 0.427463 16.8409 0.427463 16.641C0.427463 16.4411 0.527424 16.2411 0.627386 16.2411C2.52666 16.0412 2.82655 15.5414 2.82655 14.3419V4.24571C2.82655 3.04617 2.72658 2.64632 0.527424 2.34644C0.327501 2.24648 0.227539 2.04655 0.227539 1.84662C0.227539 1.6467 0.327501 1.44678 0.427463 1.44678C1.92689 1.44678 3.02647 1.54674 4.42593 1.54674C5.8254 1.54674 6.92498 1.44678 8.42441 1.44678C8.52437 1.44678 8.62433 1.6467 8.62433 1.84662C8.62433 2.04655 8.52437 2.24648 8.42441 2.24648C6.22525 2.54636 6.12529 3.04617 6.12529 4.24571V8.94392C6.72506 8.94392 7.02494 8.84396 7.42479 8.34415L12.023 3.84586C12.3229 3.54598 12.5228 3.34606 12.5228 3.04617C12.5228 2.64632 12.123 2.4464 11.1234 2.34644C11.0234 2.34644 10.9235 2.14651 10.9235 1.94659C10.9235 1.74666 11.0234 1.54674 11.1234 1.54674C12.223 1.54674 13.3225 1.6467 14.5221 1.6467C15.6217 1.6467 16.1215 1.54674 16.9212 1.54674C17.1211 1.44678 17.221 1.74666 17.221 1.84662C17.221 2.04655 17.1211 2.24648 17.0211 2.24648C15.5217 2.4464 14.5221 2.94621 13.4225 3.94583L9.52399 7.84434L15.3218 14.8417C16.2214 15.9413 16.9212 16.1412 18.1207 16.3411C18.2207 16.3411 18.3206 16.541 18.3206 16.741C18.3206 16.8409 18.2207 17.1408 18.1207 17.1408ZM4.5259 14.9416V3.64594C4.5259 2.84625 4.92574 2.14651 5.72544 1.94659C5.22563 2.04655 4.72582 2.04655 3.92613 2.04655C3.22639 2.04655 2.72658 2.04655 2.12681 1.94659C3.02647 2.14651 3.32635 2.84625 3.32635 3.64594V14.9416C3.32635 15.7413 2.92651 16.4411 2.12681 16.641C2.72658 16.541 3.22639 16.541 3.92613 16.541C4.62586 16.541 5.12567 16.541 5.72544 16.641C4.92574 16.4411 4.5259 15.7413 4.5259 14.9416ZM13.9223 15.3415L8.32444 8.74399C7.9246 9.04388 7.42479 9.44373 7.1249 9.44373C7.52475 9.54369 7.72467 9.7436 8.02456 10.0435L11.8231 14.5418C12.223 14.9416 12.4229 15.4415 12.4229 15.7413C12.4229 16.0412 12.223 16.3411 11.5232 16.641C12.4229 16.641 13.2226 16.541 14.1222 16.541C14.622 16.541 15.4217 16.541 15.8216 16.541C15.1218 16.3411 14.622 16.0412 13.9223 15.3415ZM14.2222 2.04655C13.5225 2.04655 12.9227 2.04655 12.4229 1.94659C12.9227 2.14651 13.2226 2.4464 13.2226 2.84625C13.2226 2.94621 13.2226 3.24609 13.1226 3.44602C13.6224 2.84625 14.2222 2.34644 15.0219 2.04655H14.2222Z" fill="white"></path><path d="M39.7124 17.1416C38.2129 17.1416 37.2133 17.0417 36.0138 17.0417C34.6143 17.0417 33.5147 17.1416 32.0153 17.1416C31.9153 17.1416 31.8154 16.9417 31.8154 16.7418C31.8154 16.5419 31.8154 16.3419 31.9153 16.3419C33.4148 16.242 33.7147 15.9421 33.7147 15.4423C33.7147 15.1424 33.6147 14.8425 33.5147 14.5426L32.5151 11.8436H27.8169L26.9173 14.2427C26.8173 14.6426 26.6174 15.0424 26.6174 15.3423C26.6174 15.9421 26.9173 16.3419 28.4167 16.4419C28.5166 16.4419 28.5166 16.6418 28.5166 16.8417C28.5166 17.0417 28.4167 17.2416 28.3167 17.2416C27.0172 17.2416 26.6174 17.1416 25.4178 17.1416C24.4182 17.1416 23.9184 17.2416 22.8188 17.2416C22.7189 17.2416 22.6189 17.0417 22.6189 16.8417C22.6189 16.6418 22.8188 16.4419 22.8188 16.4419C24.2183 16.3419 24.7181 15.6422 25.4178 14.2427L30.8158 1.54758C30.8158 1.44762 31.1157 1.34766 31.3156 1.34766C31.5155 1.34766 31.8154 1.44762 31.8154 1.54758L36.6136 14.2427C37.1134 15.6422 37.7131 16.3419 39.4125 16.4419C39.5124 16.4419 39.6124 16.6418 39.6124 16.8417C39.9123 16.8417 39.8123 17.1416 39.7124 17.1416ZM25.9176 15.5422C25.9176 15.3423 25.9176 15.0424 26.0176 14.8425C25.6178 15.7422 25.2179 16.3419 24.5182 16.6418C24.8181 16.6418 25.2179 16.5419 25.6178 16.5419C25.9176 16.5419 26.2175 16.5419 26.4174 16.5419C26.1176 16.242 25.9176 15.8421 25.9176 15.5422ZM30.4159 5.54605L28.4167 10.844H32.4152L30.4159 5.54605ZM35.7139 14.9425L31.3156 2.74712L30.6158 4.44647L34.3144 14.9425C34.4144 15.1424 34.4144 15.4423 34.4144 15.6422C34.4144 16.142 34.2145 16.5419 33.6147 16.6418C34.2145 16.5419 34.9142 16.5419 35.6139 16.5419C36.3137 16.5419 36.8135 16.5419 37.4132 16.6418C36.6136 16.4419 36.0138 15.6422 35.7139 14.9425Z" fill="white"></path><path d="M60.6046 6.24565C60.5046 6.24565 60.3047 6.14568 60.3047 6.14568C59.7049 4.14645 58.2055 2.54706 56.4062 2.54706H55.7065C55.0067 2.54706 54.7068 2.74698 54.7068 3.44671V14.4425C54.7068 15.6421 55.0067 16.1419 56.906 16.3418C57.006 16.3418 57.1059 16.5417 57.1059 16.7416C57.1059 16.9416 57.006 17.1415 56.906 17.1415C55.4066 17.1415 54.407 17.0415 53.0075 17.0415C51.608 17.0415 50.5085 17.1415 49.009 17.1415C48.9091 17.1415 48.8091 16.9416 48.8091 16.7416C48.8091 16.5417 48.9091 16.3418 49.009 16.3418C51.0083 16.1419 51.2082 15.6421 51.2082 14.4425V3.44671C51.2082 2.74698 51.0083 2.54706 50.2086 2.54706H49.7088C48.1094 2.54706 46.0102 4.24641 45.3104 6.14568C45.3104 6.24565 45.1105 6.24565 45.0106 6.24565C44.8106 6.24565 44.5107 6.14568 44.5107 5.94576C44.9106 4.44633 45.2105 2.74698 45.5104 1.24756C46.41 1.44748 48.7091 1.54744 52.8076 1.54744C56.906 1.54744 59.4051 1.44748 60.3047 1.24756C60.4047 2.64702 60.6046 4.34637 60.8045 5.94576C61.1044 6.04572 60.9045 6.24565 60.6046 6.24565ZM46.2101 1.74737C46.1101 2.24717 45.9102 3.34675 45.8102 3.84656C46.41 3.04687 47.2097 2.24717 48.2093 1.94729C47.5096 1.94729 46.6099 1.84733 46.2101 1.74737ZM53.2074 14.9423V3.34675C53.2074 2.64702 53.3074 2.14721 53.7072 1.94729C53.5073 1.94729 52.9075 1.94729 52.6077 1.94729C52.1078 1.94729 51.608 1.94729 51.3081 1.94729C51.808 2.14721 52.0079 2.54706 52.0079 3.24679V14.8424C52.0079 15.6421 51.608 16.3418 50.8083 16.5417C51.4081 16.4418 51.9079 16.4418 52.6077 16.4418C53.3074 16.4418 53.8072 16.4418 54.407 16.5417C53.5073 16.4418 53.2074 15.742 53.2074 14.9423ZM59.505 1.84733C59.0052 1.84733 57.9056 1.94729 56.906 1.94729C58.3055 2.04725 59.3051 2.84694 59.8049 3.64664C59.8049 3.34675 59.505 2.24717 59.505 1.84733Z" fill="white"></path><path d="M74.7991 17.1414C73.2996 17.1414 72.3 17.0415 70.9005 17.0415C69.5011 17.0415 68.5015 17.1414 66.9021 17.1414C66.8021 17.1414 66.7021 16.9415 66.7021 16.7416C66.7021 16.5417 66.8021 16.3417 66.9021 16.3417C68.9013 16.1418 69.1012 15.642 69.1012 14.4425V4.24633C69.1012 3.04679 68.8013 2.54698 66.9021 2.34706C66.8021 2.34706 66.7021 2.14713 66.7021 1.94721C66.7021 1.74729 66.8021 1.54736 66.9021 1.54736C68.4015 1.54736 69.5011 1.64733 70.9005 1.64733C72.3 1.64733 73.2996 1.54736 74.7991 1.54736C74.899 1.54736 74.999 1.74729 74.999 1.94721C74.999 2.14713 74.899 2.34706 74.7991 2.34706C72.8998 2.54698 72.5999 3.04679 72.5999 4.24633V14.4425C72.5999 15.642 72.8998 16.1418 74.7991 16.3417C74.899 16.3417 74.999 16.5417 74.999 16.7416C74.999 16.8415 74.999 17.1414 74.7991 17.1414ZM71.1005 14.9423V3.64656C71.1005 2.84686 71.5003 2.14713 72.3 1.94721C71.7002 1.94721 71.2004 2.04717 70.5007 2.04717C69.801 2.04717 69.3012 2.04717 68.7014 1.94721C69.601 2.14713 69.9009 2.84686 69.9009 3.64656V14.9423C69.9009 15.742 69.5011 16.4417 68.7014 16.6416C69.3012 16.5417 69.801 16.5417 70.5007 16.5417C71.2004 16.5417 71.7002 16.5417 72.3 16.6416C71.5003 16.4417 71.1005 15.742 71.1005 14.9423Z" fill="white"></path><path d="M105.487 16.6416C104.088 16.6416 101.989 17.4412 99.8896 17.4412C93.8919 17.4412 90.8931 13.5427 90.8931 9.34433C90.8931 4.94601 94.3917 1.14746 99.9896 1.14746C102.289 1.14746 103.788 1.74723 105.088 1.74723C105.188 3.04674 105.288 4.84605 105.487 6.14555C105.487 6.24552 105.188 6.34548 105.088 6.34548C104.888 6.34548 104.788 6.24552 104.688 6.14555C104.288 4.14632 102.289 2.14708 99.8896 2.14708C96.291 2.14708 94.3917 5.34586 94.3917 9.44429C94.3917 13.4428 96.291 16.6416 99.7897 16.6416C102.689 16.6416 104.388 14.7423 105.288 12.3432C105.288 12.2432 105.487 12.1433 105.687 12.1433C105.887 12.1433 106.087 12.2432 106.087 12.3432C105.987 13.4428 105.687 15.442 105.487 16.6416ZM91.6928 9.34433C91.6928 12.6431 93.592 15.7419 97.2906 16.7415C94.6916 15.7419 92.9923 12.943 92.9923 9.24437C92.9923 5.54578 94.8915 2.74685 97.5905 1.84719C93.8919 2.84681 91.6928 5.94563 91.6928 9.34433ZM104.188 2.14708C103.388 2.04712 102.289 1.74723 101.289 1.64727C102.389 1.94716 103.688 2.84681 104.288 3.74647C104.388 3.24666 104.288 2.64689 104.188 2.14708ZM101.889 16.7415C102.789 16.6416 103.888 16.2417 104.688 16.1417C104.788 15.6419 104.888 14.9422 104.988 14.4424C104.288 15.442 103.188 16.4416 101.889 16.7415Z" fill="white"></path><path d="M129.478 2.24709C127.479 2.44702 127.179 2.94683 127.179 4.14637V11.2437C127.179 14.6424 125.38 17.4413 121.381 17.4413C116.683 17.4413 114.384 15.0422 114.384 11.0438V4.24633C114.384 3.04679 114.084 2.54698 112.185 2.34706C112.085 2.34706 111.985 2.14713 111.985 1.94721C111.985 1.74729 112.085 1.54736 112.185 1.54736C113.684 1.54736 114.684 1.64733 116.083 1.64733C117.483 1.64733 118.482 1.54736 119.982 1.54736C120.082 1.54736 120.182 1.74729 120.182 1.94721C120.182 2.14713 120.082 2.34706 119.982 2.34706C117.983 2.54698 117.783 3.04679 117.783 4.24633V11.3436C117.783 14.9423 119.182 16.2418 121.981 16.2418C124.68 16.2418 126.179 14.4425 126.179 11.0438V4.24633C126.179 3.04679 125.78 2.54698 123.88 2.34706C123.78 2.34706 123.68 2.14713 123.68 1.94721C123.68 1.74729 123.78 1.54736 123.88 1.54736C124.88 1.54736 125.68 1.64733 126.779 1.64733C127.879 1.64733 128.479 1.54736 129.578 1.54736C129.678 1.54736 129.778 1.74729 129.778 1.94721C129.678 2.04717 129.578 2.24709 129.478 2.24709ZM116.183 10.9438V7.14522V3.64656C116.183 2.84686 116.583 2.14713 117.383 1.94721C116.783 1.94721 116.283 2.04717 115.583 2.04717C114.884 2.04717 114.384 2.04717 113.784 1.94721C114.684 2.14713 114.984 2.84686 114.984 3.64656V11.4436C114.984 14.5424 117.083 17.0415 121.281 17.0415C118.682 17.0415 116.183 15.2421 116.183 10.9438ZM126.479 2.04717C125.98 2.04717 125.58 2.04717 125.18 1.94721C125.88 2.14713 126.379 2.64694 126.479 3.24671C126.679 2.54698 126.979 2.14713 127.579 1.94721C127.379 2.04717 126.679 2.04717 126.479 2.04717Z" fill="white"></path><path d="M151.57 17.1414C150.77 17.1414 149.371 17.0415 148.871 17.0415C148.171 17.0415 147.071 17.1414 146.472 17.1414L143.373 11.5436C142.673 10.244 142.273 10.0441 140.874 10.0441V14.4425C140.874 15.642 141.074 16.1418 143.073 16.3417C143.173 16.3417 143.273 16.5417 143.273 16.7416C143.273 16.9415 143.173 17.1414 143.073 17.1414C141.574 17.1414 140.574 17.0415 139.274 17.0415C137.875 17.0415 136.875 17.1414 135.376 17.1414C135.276 17.1414 135.176 16.9415 135.176 16.7416C135.176 16.5417 135.276 16.3417 135.376 16.3417C137.275 16.1418 137.575 15.642 137.575 14.4425V4.24633C137.575 3.04679 137.275 2.54698 135.376 2.34706C135.276 2.34706 135.176 2.14713 135.176 1.94721C135.176 1.74729 135.276 1.54736 135.376 1.54736C136.875 1.54736 137.975 1.64733 139.374 1.64733C140.774 1.64733 141.474 1.54736 142.973 1.54736C147.171 1.54736 149.071 3.24671 149.071 5.54583C149.071 7.44511 147.871 8.74461 145.772 9.44434L149.171 14.7423C149.67 15.642 150.27 16.1418 151.87 16.3417C151.97 16.3417 151.97 16.5417 151.97 16.7416C151.77 16.8415 151.67 17.1414 151.57 17.1414ZM139.274 14.9423V3.64656C139.274 2.84686 139.474 2.14713 140.374 1.94721C139.774 2.04717 139.374 2.04717 138.575 2.04717C137.875 2.04717 137.375 2.04717 136.775 1.94721C137.675 2.14713 137.975 2.84686 137.975 3.64656V14.9423C137.975 15.742 137.575 16.4417 136.775 16.6416C137.375 16.5417 137.875 16.5417 138.575 16.5417C139.274 16.5417 139.774 16.5417 140.374 16.6416C139.674 16.4417 139.274 15.742 139.274 14.9423ZM142.573 2.44702C140.974 2.44702 140.774 2.94683 140.774 4.04641V9.14446C141.174 9.24442 141.574 9.24442 142.073 9.24442C144.373 9.24442 145.272 8.14484 145.272 5.84572C145.272 3.64656 144.572 2.44702 142.573 2.44702ZM147.771 15.542L144.173 9.44434C143.773 9.54431 143.173 9.64427 142.773 9.64427H142.573C143.273 9.84419 143.573 10.344 144.073 11.3436L146.972 16.6416C147.471 16.6416 148.371 16.5417 148.771 16.5417C148.271 16.3417 148.071 16.0418 147.771 15.542ZM143.173 1.94721C145.172 2.04717 145.972 3.5466 145.972 5.54583C145.972 7.54507 145.372 8.84457 144.373 9.34438C146.272 8.54469 147.371 7.44511 147.371 5.54583C147.371 3.34667 145.872 1.94721 143.173 1.94721Z" fill="white"></path><path d="M172.162 6.24565C172.062 6.24565 171.862 6.14568 171.862 6.14568C171.262 4.14645 169.763 2.54706 167.964 2.54706H167.264C166.564 2.54706 166.264 2.74698 166.264 3.44671V14.4425C166.264 15.6421 166.564 16.1419 168.463 16.3418C168.563 16.3418 168.663 16.5417 168.663 16.7416C168.663 16.9416 168.563 17.1415 168.463 17.1415C166.964 17.1415 165.964 17.0415 164.565 17.0415C163.165 17.0415 162.066 17.1415 160.566 17.1415C160.466 17.1415 160.366 16.9416 160.366 16.7416C160.366 16.5417 160.466 16.3418 160.566 16.3418C162.566 16.1419 162.766 15.6421 162.766 14.4425V3.44671C162.766 2.74698 162.566 2.54706 161.766 2.54706H161.266C159.667 2.54706 157.568 4.24641 156.868 6.14568C156.868 6.24565 156.668 6.24565 156.568 6.24565C156.368 6.24565 156.068 6.14568 156.068 5.94576C156.468 4.44633 156.768 2.74698 157.068 1.24756C157.967 1.44748 160.267 1.54744 164.365 1.54744C168.463 1.54744 170.962 1.44748 171.862 1.24756C171.962 2.64702 172.162 4.34637 172.362 5.94576C172.662 6.04572 172.462 6.24565 172.162 6.24565ZM157.767 1.74737C157.668 2.24717 157.468 3.34675 157.368 3.84656C157.967 3.04687 158.767 2.24717 159.767 1.94729C159.167 1.94729 158.167 1.84733 157.767 1.74737ZM164.765 14.9423V3.34675C164.765 2.64702 164.865 2.14721 165.265 1.94729C165.065 1.94729 164.465 1.94729 164.165 1.94729C163.665 1.94729 163.165 1.94729 162.866 1.94729C163.365 2.14721 163.565 2.54706 163.565 3.24679V14.8424C163.565 15.6421 163.165 16.3418 162.366 16.5417C162.965 16.4418 163.465 16.4418 164.165 16.4418C164.865 16.4418 165.365 16.4418 165.964 16.5417C165.065 16.4418 164.765 15.742 164.765 14.9423ZM171.062 1.84733C170.563 1.84733 169.463 1.94729 168.463 1.94729C169.863 2.04725 170.862 2.84694 171.362 3.64664C171.362 3.34675 171.062 2.24717 171.062 1.84733Z" fill="white"></path><path d="M186.456 17.1414C184.957 17.1414 183.957 17.0415 182.558 17.0415C181.158 17.0415 180.159 17.1414 178.559 17.1414C178.459 17.1414 178.359 16.9415 178.359 16.7416C178.359 16.5417 178.459 16.3417 178.559 16.3417C180.559 16.1418 180.758 15.642 180.758 14.4425V4.24633C180.758 3.04679 180.459 2.54698 178.559 2.34706C178.459 2.34706 178.359 2.14713 178.359 1.94721C178.359 1.74729 178.459 1.54736 178.559 1.54736C180.059 1.54736 181.158 1.64733 182.558 1.64733C183.957 1.64733 184.957 1.54736 186.456 1.54736C186.556 1.54736 186.656 1.74729 186.656 1.94721C186.656 2.14713 186.556 2.34706 186.456 2.34706C184.557 2.54698 184.257 3.04679 184.257 4.24633V14.4425C184.257 15.642 184.557 16.1418 186.456 16.3417C186.556 16.3417 186.656 16.5417 186.656 16.7416C186.556 16.8415 186.556 17.1414 186.456 17.1414ZM182.658 14.9423V3.64656C182.658 2.84686 183.058 2.14713 183.857 1.94721C183.258 1.94721 182.758 2.04717 182.058 2.04717C181.358 2.04717 180.858 2.04717 180.259 1.94721C181.158 2.14713 181.458 2.84686 181.458 3.64656V14.9423C181.458 15.742 181.058 16.4417 180.259 16.6416C180.858 16.5417 181.358 16.5417 182.058 16.5417C182.758 16.5417 183.258 16.5417 183.857 16.6416C183.058 16.4417 182.658 15.742 182.658 14.9423Z" fill="white"></path><path d="M198.452 17.4412C196.453 17.4412 195.253 16.6416 193.554 16.5416C193.554 15.342 193.454 13.4428 193.354 12.3432C193.354 12.2432 193.554 12.1433 193.754 12.1433C193.954 12.1433 194.053 12.1433 194.153 12.3432C194.853 15.0422 196.453 16.5416 198.452 16.5416C200.351 16.5416 201.151 15.542 201.151 14.0425C201.151 10.5439 193.754 10.244 193.754 5.84567C193.754 3.34662 195.753 1.14746 199.152 1.14746C200.851 1.14746 201.251 1.54731 202.95 1.74723C203.05 3.04674 203.05 4.24628 203.25 5.54578C203.25 5.64574 203.05 5.74571 202.85 5.74571C202.65 5.74571 202.45 5.74571 202.45 5.54578C201.95 3.24666 200.851 2.04712 199.152 2.04712C197.552 2.04712 196.652 3.04674 196.652 4.34624C196.652 7.54502 203.95 8.14479 203.95 12.4432C203.95 15.542 201.751 17.4412 198.452 17.4412ZM194.153 14.4424C194.153 14.8422 194.153 15.6419 194.253 16.0418C194.553 16.0418 195.353 16.2417 195.553 16.3417C195.153 16.0418 194.353 15.0422 194.153 14.4424ZM198.852 8.84452C197.152 7.94487 195.353 6.64536 195.353 4.84605C195.353 3.54655 196.053 2.44697 197.452 1.94716C195.353 2.44697 194.453 4.24628 194.453 5.64574C194.453 9.9441 201.851 10.0441 201.851 14.0425C201.851 15.542 201.151 16.3417 199.951 16.7415C201.551 16.2417 202.85 14.9422 202.85 13.0429C202.75 11.1437 200.951 10.0441 198.852 8.84452ZM202.05 2.24704C201.651 2.24704 200.951 2.04712 200.551 1.94716C201.251 2.14708 201.751 2.74685 202.15 3.34662C202.15 3.04674 202.05 2.54693 202.05 2.24704Z" fill="white"></path><path d="M226.541 1.14746H231.939C237.137 1.14746 240.736 4.64613 240.736 9.24437C240.736 13.8426 237.137 17.3413 231.939 17.3413H226.541V1.14746ZM231.939 16.7415C236.737 16.7415 239.936 13.4428 239.936 9.34433C239.936 5.2459 236.737 1.94716 231.939 1.94716H227.341V16.8415H231.939V16.7415Z" fill="white"></path><path d="M249.732 1.14746H261.428V1.84719H250.532V8.84452H260.328V9.54426H250.532V16.6416H261.528V17.3413H249.732V1.14746Z" fill="white"></path><path d="M269.125 15.0424L269.625 14.4426C271.424 16.042 273.323 16.9416 275.722 16.9416C278.621 16.9416 280.421 15.4422 280.421 13.343C280.421 11.4437 279.321 10.4441 275.323 9.54447C271.224 8.74478 269.725 7.44528 269.725 5.14615C269.725 2.84703 272.024 0.947754 275.123 0.947754C277.422 0.947754 279.221 1.64749 280.721 2.84703L280.221 3.4468C278.721 2.24726 276.922 1.64749 275.023 1.64749C272.324 1.64749 270.524 3.24688 270.524 5.04619C270.524 6.94547 271.624 7.94508 275.623 8.84474C279.721 9.64443 281.22 10.9439 281.22 13.243C281.22 15.7421 279.021 17.6414 275.623 17.6414C273.123 17.6414 271.024 16.7417 269.125 15.0424Z" fill="white"></path><path d="M290.317 1.14746H291.117V17.4412H290.317V1.14746Z" fill="white"></path><path d="M300.213 9.34441C300.213 4.94609 303.412 0.847656 308.41 0.847656C311.009 0.847656 312.608 1.64735 314.307 2.94685L313.808 3.54663C312.408 2.34708 310.809 1.54739 308.41 1.54739C304.011 1.54739 301.113 5.24598 301.113 9.24445C301.113 13.4428 303.911 16.9415 308.61 16.9415C310.909 16.9415 312.908 15.9419 314.307 14.8423V9.84422H308.41V9.14449H315.107V15.2422C313.608 16.6416 311.309 17.7412 308.61 17.7412C303.212 17.7412 300.213 13.9427 300.213 9.34441Z" fill="white"></path><path d="M324.204 1.14746H324.903L336.999 16.1417V1.14746H337.798V17.4412H337.199L325.003 2.347V17.4412H324.204V1.14746Z" fill="white"></path><path d="M216.345 9.24454C216.345 10.0442 215.645 10.744 214.846 10.744C214.046 10.744 213.346 10.0442 213.346 9.24454C213.346 8.44485 214.046 7.74512 214.846 7.74512C215.645 7.84508 216.345 8.44485 216.345 9.24454Z" fill="white"></path></g><defs><clipPath id="clip0"><rect width="337.871" height="16.9935" fill="white" transform="translate(0.227539 0.847656)"></rect></clipPath></defs></svg>